<svg xmlns="http://www.w3.org/2000/svg">
    <!--!Font Awesome Free v7.1.0 by @fontawesome - https://fontawesome.com License - https://fontawesome.com/license/free Copyright 2025 Fonticons, Inc.-->
    <symbol id="magnifying-glass" viewBox="0 0 640 640">
        <path
            d="M480 272C480 317.9 465.1 360.3 440 394.7L566.6 521.4C579.1 533.9 579.1 554.2 566.6 566.7C554.1 579.2 533.8 579.2 521.3 566.7L394.7 440C360.3 465.1 317.9 480 272 480C157.1 480 64 386.9 64 272C64 157.1 157.1 64 272 64C386.9 64 480 157.1 480 272zM272 416C351.5 416 416 351.5 416 272C416 192.5 351.5 128 272 128C192.5 128 128 192.5 128 272C128 351.5 192.5 416 272 416z"
        />
    </symbol>
    <symbol id="xmark" viewBox="0 0 640 640">
        <path
            d="M183.1 137.4C170.6 124.9 150.3 124.9 137.8 137.4C125.3 149.9 125.3 170.2 137.8 182.7L275.2 320L137.9 457.4C125.4 469.9 125.4 490.2 137.9 502.7C150.4 515.2 170.7 515.2 183.2 502.7L320.5 365.3L457.9 502.6C470.4 515.1 490.7 515.1 503.2 502.6C515.7 490.1 515.7 469.8 503.2 457.3L365.8 320L503.1 182.6C515.6 170.1 515.6 149.8 503.1 137.3C490.6 124.8 470.3 124.8 457.8 137.3L320.5 274.7L183.1 137.4z"
        />
    </symbol>
    <symbol id="ellipsis" viewBox="0 0 640 640">
        <path
            d="M96 320C96 289.1 121.1 264 152 264C182.9 264 208 289.1 208 320C208 350.9 182.9 376 152 376C121.1 376 96 350.9 96 320zM264 320C264 289.1 289.1 264 320 264C350.9 264 376 289.1 376 320C376 350.9 350.9 376 320 376C289.1 376 264 350.9 264 320zM488 264C518.9 264 544 289.1 544 320C544 350.9 518.9 376 488 376C457.1 376 432 350.9 432 320C432 289.1 457.1 264 488 264z"
        />
    </symbol>
    <symbol id="dice" viewBox="0 0 640 640">
        <path
            d="M205.4 66.3C167 56 127.5 78.8 117.3 117.2L66.5 306.7C56.2 345.1 79 384.6 117.4 394.9L306.9 445.7C345.3 456 384.8 433.2 395.1 394.8L445.9 205.3C456.2 166.9 433.4 127.4 395 117.1L205.4 66.3zM228.4 272C222.3 262.1 222.1 249.6 227.8 239.5C233.5 229.4 244.3 223.2 256 223.3C267.6 223.4 278.2 229.8 283.8 240C289.9 249.9 290.1 262.4 284.4 272.5C278.7 282.6 267.9 288.8 256.2 288.7C244.6 288.6 234 282.2 228.4 272zM143.2 284.3C153.1 278.2 165.6 278 175.7 283.7C185.8 289.4 192 300.2 191.9 311.9C191.8 323.5 185.4 334.1 175.2 339.7C165.3 345.8 152.8 346 142.7 340.3C132.6 334.6 126.4 323.8 126.5 312.1C126.6 300.5 133 289.9 143.2 284.3zM328.2 380.7C318.3 386.8 305.8 387 295.7 381.3C285.6 375.6 279.4 364.8 279.5 353.1C279.6 341.5 286 330.9 296.2 325.3C306.1 319.2 318.6 319 328.7 324.7C338.8 330.4 345 341.2 344.9 352.9C344.8 364.5 338.4 375.1 328.2 380.7zM337.2 172.3C347.1 166.2 359.6 166 369.7 171.7C379.8 177.4 386 188.2 385.9 199.9C385.8 211.5 379.4 222.1 369.2 227.7C359.3 233.8 346.8 234 336.7 228.3C326.6 222.6 320.4 211.8 320.5 200.1C320.6 188.5 327 177.9 337.2 172.3zM216.2 186.7C206.3 192.8 193.8 193 183.7 187.3C173.6 181.6 167.4 170.8 167.5 159.1C167.6 147.5 174 136.9 184.2 131.3C194.1 125.2 206.6 125 216.7 130.7C226.8 136.4 233 147.2 232.9 158.9C232.8 170.5 226.4 181.1 216.2 186.7zM482 256L441.4 407.2C424.2 471.2 358.4 509.2 294.4 492.1L256.1 481.8L256.1 512C256.1 547.3 284.8 576 320.1 576L512.1 576C547.4 576 576.1 547.3 576.1 512L576.1 320C576.1 284.7 547.4 256 512.1 256L482 256z"
        />
    </symbol>

    <symbol id="moon" viewBox="0 0 640 640">
        <path
            d="M320 64C178.6 64 64 178.6 64 320C64 461.4 178.6 576 320 576C388.8 576 451.3 548.8 497.3 504.6C504.6 497.6 506.7 486.7 502.6 477.5C498.5 468.3 488.9 462.6 478.8 463.4C473.9 463.8 469 464 464 464C362.4 464 280 381.6 280 280C280 207.9 321.5 145.4 382.1 115.2C391.2 110.7 396.4 100.9 395.2 90.8C394 80.7 386.6 72.5 376.7 70.3C358.4 66.2 339.4 64 320 64z"
        />
    </symbol>
    <symbol id="sun" viewBox="0 0 640 640">
        <path
            d="M210.2 53.9C217.6 50.8 226 51.7 232.7 56.1L320.5 114.3L408.3 56.1C415 51.7 423.4 50.9 430.8 53.9C438.2 56.9 443.4 63.5 445 71.3L465.9 174.5L569.1 195.4C576.9 197 583.5 202.4 586.5 209.7C589.5 217 588.7 225.5 584.3 232.2L526.1 320L584.3 407.8C588.7 414.5 589.5 422.9 586.5 430.3C583.5 437.7 576.9 443.1 569.1 444.6L465.8 465.4L445 568.7C443.4 576.5 438 583.1 430.7 586.1C423.4 589.1 414.9 588.3 408.2 583.9L320.4 525.7L232.6 583.9C225.9 588.3 217.5 589.1 210.1 586.1C202.7 583.1 197.3 576.5 195.8 568.7L175 465.4L71.7 444.5C63.9 442.9 57.3 437.5 54.3 430.2C51.3 422.9 52.1 414.4 56.5 407.7L114.7 320L56.5 232.2C52.1 225.5 51.3 217.1 54.3 209.7C57.3 202.3 63.9 196.9 71.7 195.4L175 174.6L195.9 71.3C197.5 63.5 202.9 56.9 210.2 53.9zM239.6 320C239.6 275.6 275.6 239.6 320 239.6C364.4 239.6 400.4 275.6 400.4 320C400.4 364.4 364.4 400.4 320 400.4C275.6 400.4 239.6 364.4 239.6 320zM448.4 320C448.4 249.1 390.9 191.6 320 191.6C249.1 191.6 191.6 249.1 191.6 320C191.6 390.9 249.1 448.4 320 448.4C390.9 448.4 448.4 390.9 448.4 320z"
        />
    </symbol>
    <symbol id="circle-half-stroke" viewBox="0 0 640 640">
        <path
            d="M512 320C512 214 426 128 320 128L320 512C426 512 512 426 512 320zM64 320C64 178.6 178.6 64 320 64C461.4 64 576 178.6 576 320C576 461.4 461.4 576 320 576C178.6 576 64 461.4 64 320z"
        />
    </symbol>
</svg>
