<svg xmlns="http://www.w3.org/2000/svg">
    <!--!Font Awesome Free v7.1.0 by @fontawesome - https://fontawesome.com License - https://fontawesome.com/license/free Copyright 2025 Fonticons, Inc.-->
    <symbol id="magnifying-glass" viewBox="0 0 640 640">
        <path
            d="M480 272C480 317.9 465.1 360.3 440 394.7L566.6 521.4C579.1 533.9 579.1 554.2 566.6 566.7C554.1 579.2 533.8 579.2 521.3 566.7L394.7 440C360.3 465.1 317.9 480 272 480C157.1 480 64 386.9 64 272C64 157.1 157.1 64 272 64C386.9 64 480 157.1 480 272zM272 416C351.5 416 416 351.5 416 272C416 192.5 351.5 128 272 128C192.5 128 128 192.5 128 272C128 351.5 192.5 416 272 416z"
        />
    </symbol>
    <symbol id="xmark" viewBox="0 0 640 640">
        <path
            d="M183.1 137.4C170.6 124.9 150.3 124.9 137.8 137.4C125.3 149.9 125.3 170.2 137.8 182.7L275.2 320L137.9 457.4C125.4 469.9 125.4 490.2 137.9 502.7C150.4 515.2 170.7 515.2 183.2 502.7L320.5 365.3L457.9 502.6C470.4 515.1 490.7 515.1 503.2 502.6C515.7 490.1 515.7 469.8 503.2 457.3L365.8 320L503.1 182.6C515.6 170.1 515.6 149.8 503.1 137.3C490.6 124.8 470.3 124.8 457.8 137.3L320.5 274.7L183.1 137.4z"
        />
    </symbol>
    <symbol id="ellipsis" viewBox="0 0 640 640">
        <path
            d="M96 320C96 289.1 121.1 264 152 264C182.9 264 208 289.1 208 320C208 350.9 182.9 376 152 376C121.1 376 96 350.9 96 320zM264 320C264 289.1 289.1 264 320 264C350.9 264 376 289.1 376 320C376 350.9 350.9 376 320 376C289.1 376 264 350.9 264 320zM488 264C518.9 264 544 289.1 544 320C544 350.9 518.9 376 488 376C457.1 376 432 350.9 432 320C432 289.1 457.1 264 488 264z"
        />
    </symbol>
</svg>
